<svg width="22" height="22" viewBox="0 0 22 22" fill="none" xmlns="http://www.w3.org/2000/svg">
<path d="M19.4 0.200001H2.59995C1.27995 0.200001 0.199951 1.28 0.199951 2.6V19.4C0.199951 20.7212 1.27995 21.8 2.59995 21.8H11V13.4H8.59995V10.43H11V7.97C11 5.3732 12.4544 3.5492 15.5192 3.5492L17.6828 3.5516V6.6776H16.2464C15.0536 6.6776 14.6 7.5728 14.6 8.4032V10.4312H17.6816L17 13.4H14.6V21.8H19.4C20.72 21.8 21.8 20.7212 21.8 19.4V2.6C21.8 1.28 20.72 0.200001 19.4 0.200001Z" fill="#6C6C6C"/>
</svg>
